<?xml version="1.0" standalone="no"?>
<!DOCTYPE svg PUBLIC "-//W3C//DTD SVG 20010904//EN"
 "http://www.w3.org/TR/2001/REC-SVG-20010904/DTD/svg10.dtd">
<svg version="1.0" xmlns="http://www.w3.org/2000/svg"
 width="225.000000pt" height="225.000000pt" viewBox="0 0 225.000000 225.000000"
 preserveAspectRatio="xMidYMid meet">
<metadata>
Created by potrace 1.11, written by Peter Selinger 2001-2013
</metadata>
<g transform="translate(0.000000,225.000000) scale(0.100000,-0.100000)"
fill="#000000" stroke="none">
<path d="M0 1125 l0 -1125 1125 0 1125 0 0 90 c0 50 -2 90 -5 90 -3 0 -22 -7
-42 -15 -57 -24 -58 -19 -4 49 l51 64 0 142 c0 77 -4 139 -9 136 -4 -3 -11 48
-15 114 -5 96 -4 127 9 156 10 23 15 68 15 125 l0 90 -32 -17 c-18 -9 -50 -32
-70 -52 -21 -20 -39 -34 -41 -31 -30 36 -73 111 -83 147 -28 90 -15 152 50
242 42 59 69 110 62 117 -12 12 -124 -55 -172 -103 -76 -77 -99 -130 -98 -234
0 -61 6 -105 22 -155 13 -38 26 -107 29 -152 6 -79 4 -86 -26 -147 -36 -74
-106 -138 -238 -219 -7 -4 -1 12 12 35 52 90 75 200 100 476 l16 172 68 139
c76 156 92 212 92 332 0 168 -40 256 -188 409 -112 116 -157 170 -179 213 -8
15 -23 27 -34 27 -50 0 -55 -108 -10 -210 42 -96 41 -102 -20 -94 -47 6 -49 5
-56 -20 -7 -31 0 -44 93 -158 86 -107 113 -165 113 -245 0 -60 -2 -64 -43
-108 -49 -51 -51 -51 -182 -30 -49 8 -141 15 -202 15 l-113 0 0 430 0 430
-560 0 -560 0 0 -1125z m635 899 c12 -12 15 -31 13 -73 -3 -52 -1 -56 20 -59
13 -2 28 -14 34 -26 11 -27 -6 -65 -72 -155 -47 -64 -60 -104 -60 -186 0 -63
23 -129 54 -154 18 -15 110 -12 251 8 39 6 109 10 158 11 l87 0 0 -449 0 -450
-42 -3 c-30 -2 -43 -8 -43 -18 0 -8 -6 -21 -13 -29 -7 -7 -10 -16 -7 -19 3 -4
11 0 16 8 9 13 10 13 7 0 -3 -11 -22 -15 -69 -16 -59 -2 -62 -1 -32 9 18 7 39
21 47 32 9 11 16 14 16 8 0 -7 4 -13 10 -13 5 0 9 8 8 18 -3 39 2 67 11 54 4
-7 7 12 5 45 -1 32 0 46 2 31 8 -42 24 -33 24 12 0 22 -4 40 -10 40 -5 0 -10
10 -10 23 0 18 -2 19 -11 7 -8 -11 -9 -6 -5 20 3 19 3 29 0 22 -4 -9 -13 1
-25 28 -10 23 -16 47 -12 53 3 5 1 7 -5 3 -5 -3 -20 10 -32 29 -12 19 -25 35
-29 35 -12 0 -52 41 -47 48 2 4 -12 6 -32 6 -21 -1 -56 -2 -80 -3 -32 -1 -49
-7 -66 -26 -23 -25 -39 -25 -29 1 3 8 0 14 -5 14 -11 0 -9 -31 3 -50 3 -5 -1
-7 -9 -4 -8 3 -19 25 -25 47 -9 41 -9 40 -11 -28 -2 -58 -4 -64 -10 -35 -4 20
-6 -14 -4 -80 1 -63 6 -126 10 -139 10 -33 54 -109 54 -94 0 7 -8 27 -18 45
-10 18 -19 40 -19 48 0 8 -5 33 -10 56 -9 37 0 160 12 172 14 14 14 -11 1 -65
-7 -33 -10 -66 -6 -74 4 -8 10 -35 13 -62 7 -53 33 -108 74 -158 15 -19 21
-28 12 -22 -9 7 -19 11 -22 8 -4 -3 -5 -2 -2 1 5 8 -24 38 -31 31 -11 -10 6
-43 40 -80 73 -80 219 -143 343 -149 35 -2 63 -6 63 -10 0 -16 -138 -7 -210
13 -101 28 -160 61 -224 129 -99 104 -125 179 -157 455 -11 105 -29 210 -38
235 -10 25 -45 87 -79 138 -97 148 -122 238 -103 376 21 149 119 321 225 393
54 37 77 41 101 17z m943 -1137 c61 -56 81 -142 56 -243 -28 -117 -81 -188
-159 -214 -106 -35 -195 54 -195 194 0 113 85 263 163 288 38 12 109 -1 135
-25z m-1158 -597 c0 -5 -5 -10 -11 -10 -5 0 -7 5 -4 10 3 6 8 10 11 10 2 0 4
-4 4 -10z m83 -7 c-7 -2 -21 -2 -30 0 -10 3 -4 5 12 5 17 0 24 -2 18 -5z
m-286 -26 c11 4 14 0 12 -18 -2 -13 0 -30 4 -36 5 -8 3 -13 -7 -13 -9 0 -16 5
-16 11 0 8 -5 7 -15 -1 -22 -18 -38 0 -32 36 4 29 4 28 6 -3 0 -18 5 -33 10
-33 15 0 19 23 9 50 -7 19 -7 22 3 13 6 -6 18 -9 26 -6z m462 -7 c-7 -5 -9
-18 -5 -34 4 -15 2 -26 -4 -26 -5 0 -10 18 -10 40 0 32 3 38 16 33 12 -4 12
-8 3 -13z m-562 -42 c-2 -13 -4 -5 -4 17 -1 22 1 32 4 23 2 -10 2 -28 0 -40z
m32 15 c-1 -33 -2 -35 -8 -13 -4 14 -6 31 -3 38 8 22 12 13 11 -25z m122 -23
c5 0 10 12 10 28 l2 27 4 -28 c5 -35 28 -30 28 5 -1 25 9 30 32 15 6 -4 14 -1
17 5 3 7 4 0 0 -17 -8 -43 -24 -56 -24 -20 l0 30 -13 -25 c-9 -17 -22 -25 -45
-27 -31 -3 -32 -2 -30 35 1 37 1 37 5 5 2 -18 8 -33 14 -33z m114 20 c-4 -17
-9 -29 -12 -26 -3 2 -2 19 2 36 4 17 9 29 12 26 3 -2 2 -19 -2 -36z m61 16 c1
-10 7 -23 13 -29 8 -8 11 -1 11 23 0 21 4 30 9 24 13 -12 2 -64 -13 -64 -7 0
-18 6 -25 13 -11 10 -13 10 -7 0 4 -7 3 -13 -3 -13 -5 0 -9 16 -8 35 2 36 18
43 23 11z m64 -13 c-1 -28 -3 -34 -10 -22 -8 14 -3 59 6 59 2 0 4 -17 4 -37z
m44 25 c-7 -11 5 -48 16 -48 5 0 11 8 13 18 4 13 5 11 6 -5 2 -42 -40 -24 -53
22 -3 11 -4 5 -2 -12 1 -18 -1 -33 -6 -33 -4 0 -8 15 -8 34 0 28 4 34 19 33
11 0 17 -5 15 -9z m76 2 c7 11 9 4 8 -25 0 -23 -3 -30 -5 -17 -2 12 -8 22 -13
22 -5 0 -11 -10 -13 -22 -2 -13 -5 -6 -5 17 -1 29 1 36 8 25 9 -13 11 -13 20
0z m-483 -85 c0 -8 -4 -12 -9 -9 -10 7 -10 24 0 24 5 0 9 -7 9 -15z m87 0 c3
-9 0 -15 -9 -15 -9 0 -12 6 -9 15 4 8 7 15 9 15 2 0 5 -7 9 -15z m67 2 c-6 -8
-7 -18 -3 -22 4 -5 1 -5 -6 -1 -10 6 -10 11 -1 22 6 8 14 14 16 14 3 0 0 -6
-6 -13z m74 -16 c-4 -13 1 -17 20 -17 19 0 24 4 20 16 -5 11 -3 12 6 3 13 -13
3 -37 -12 -28 -5 4 -9 1 -9 -4 0 -19 -19 -12 -36 14 -8 13 -13 29 -9 35 10 16
27 1 20 -19z m124 15 c7 -8 8 -17 3 -20 -6 -3 -12 3 -15 14 -6 24 -4 25 12 6z
m75 -1 c-4 -8 -10 -15 -15 -15 -4 0 -6 7 -3 15 4 8 10 15 15 15 4 0 6 -7 3
-15z m86 11 c0 -3 -4 -8 -10 -11 -5 -3 -10 -1 -10 4 0 6 5 11 10 11 6 0 10 -2
10 -4z m-470 -22 c0 -2 -7 -4 -15 -4 -8 0 -15 4 -15 10 0 5 7 7 15 4 8 -4 15
-8 15 -10z m143 -5 c-8 -8 -13 -7 -18 2 -5 8 -4 10 3 5 7 -4 12 -2 12 5 0 7 3
9 7 6 4 -4 2 -12 -4 -18z m139 7 c7 4 8 2 4 -4 -11 -18 -26 -14 -25 6 0 10 3
12 6 4 2 -6 10 -9 15 -6z m155 -2 c-3 -3 -12 -4 -19 -1 -8 3 -5 6 6 6 11 1 17
-2 13 -5z"/>
<path d="M495 1850 c-5 -17 -9 -19 -21 -9 -12 10 -13 9 -8 -6 5 -12 4 -16 -3
-12 -12 7 -56 -46 -65 -78 -3 -11 -9 -29 -13 -40 -5 -16 -5 -17 4 -5 7 9 11
10 11 3 0 -6 -4 -15 -10 -18 -5 -3 -10 -16 -10 -29 0 -12 -3 -26 -7 -29 -3 -4
-7 -19 -8 -34 -1 -16 -5 -36 -9 -45 -6 -13 -4 -18 8 -18 12 0 16 10 16 45 0
25 4 45 10 45 5 0 9 -30 8 -67 -1 -38 -3 -61 -5 -52 -3 11 -11 15 -24 12 -16
-5 -18 -11 -13 -42 4 -20 10 -41 15 -47 5 -6 6 -13 3 -17 -3 -3 -1 -14 5 -25
11 -21 58 -35 67 -21 3 5 9 9 15 9 5 0 4 -8 -2 -18 -12 -20 -4 -76 9 -68 4 2
8 -4 8 -14 0 -17 -2 -16 -22 3 -12 12 -20 26 -17 32 2 7 -3 18 -12 25 -30 25
-25 3 9 -46 19 -27 46 -70 60 -96 14 -26 30 -49 35 -53 6 -3 9 -11 7 -18 -1
-7 -1 -9 1 -4 8 13 23 8 23 -8 0 -8 -4 -15 -9 -15 -4 0 -4 -20 2 -45 6 -25 13
-45 16 -45 3 0 21 14 39 30 24 23 32 38 32 65 0 24 5 35 15 35 11 0 15 11 15
39 0 22 6 42 13 45 6 3 -2 5 -20 3 -20 -2 -34 2 -37 10 -3 7 -10 13 -17 13 -6
0 -8 -7 -5 -16 5 -12 2 -15 -10 -10 -8 3 -20 6 -26 6 -6 0 -8 12 -4 31 4 22 2
35 -8 43 -21 16 -66 102 -65 123 0 10 6 3 14 -17 9 -23 14 -28 14 -15 0 26
-27 126 -28 101 -1 -11 -4 -17 -7 -13 -3 3 -3 30 1 59 l8 53 13 -30 c13 -29
13 -28 13 30 0 45 -2 56 -10 43 -14 -25 -30 -22 -24 5 8 34 -8 142 -22 142
-20 0 -25 13 -13 32 9 16 10 15 5 -7 -5 -21 -4 -22 5 -8 18 29 38 1 33 -47 -3
-22 0 -51 6 -65 7 -18 10 -20 10 -7 1 25 19 21 24 -5 2 -13 1 6 -1 42 -4 43
-11 69 -21 77 -13 9 -14 14 -3 24 14 15 16 45 3 54 -5 3 -13 -4 -16 -15z m-98
-392 c-3 -8 -6 -5 -6 6 -1 11 2 17 5 13 3 -3 4 -12 1 -19z m0 -40 c-3 -8 -6
-5 -6 6 -1 11 2 17 5 13 3 -3 4 -12 1 -19z m80 -110 c-3 -8 -6 -5 -6 6 -1 11
2 17 5 13 3 -3 4 -12 1 -19z m63 -153 c0 -16 -3 -14 -15 9 -19 36 -19 56 0 30
8 -10 14 -28 15 -39z m20 51 c0 -11 -19 -15 -25 -6 -3 5 1 10 9 10 9 0 16 -2
16 -4z"/>
<path d="M581 1263 c-7 -8 -10 -17 -6 -21 4 -4 10 -1 12 6 3 6 9 10 14 6 5 -3
9 -1 9 5 0 17 -14 19 -29 4z"/>
<path d="M690 1046 c0 -2 7 -9 15 -16 12 -10 15 -10 15 4 0 9 -7 16 -15 16 -8
0 -15 -2 -15 -4z"/>
<path d="M577 910 c7 -68 13 -77 13 -22 0 23 5 42 10 42 6 0 10 9 10 19 0 14
-6 19 -20 18 -18 -1 -19 -6 -13 -57z"/>
<path d="M790 960 c-8 -5 -10 -10 -5 -10 6 0 17 5 25 10 8 5 11 10 5 10 -5 0
-17 -5 -25 -10z"/>
<path d="M645 940 c-3 -5 1 -10 9 -10 9 0 16 5 16 10 0 6 -4 10 -9 10 -6 0
-13 -4 -16 -10z"/>
<path d="M840 940 c0 -13 11 -13 30 0 12 8 11 10 -7 10 -13 0 -23 -4 -23 -10z"/>
<path d="M925 881 c3 -6 10 -9 15 -6 4 3 11 0 13 -5 3 -6 4 -5 3 2 -1 7 -11
15 -21 16 -11 3 -15 0 -10 -7z"/>
<path d="M1061 858 c0 -18 4 -55 9 -83 7 -47 7 -45 9 33 0 49 -3 82 -9 82 -5
0 -10 -15 -9 -32z"/>
<path d="M1001 796 c-7 -8 -8 -17 -3 -20 6 -3 12 3 15 14 6 24 4 25 -12 6z"/>
<path d="M1031 794 c0 -11 3 -14 6 -6 3 7 2 16 -1 19 -3 4 -6 -2 -5 -13z"/>
<path d="M1020 750 c0 -5 5 -10 11 -10 5 0 7 5 4 10 -3 6 -8 10 -11 10 -2 0
-4 -4 -4 -10z"/>
<path d="M986 441 c-4 -7 -5 -15 -2 -18 9 -9 19 4 14 18 -4 11 -6 11 -12 0z"/>
</g>
</svg>
